<svg width="84" height="80" viewBox="0 0 84 80" fill="none" xmlns="http://www.w3.org/2000/svg">
<path d="M36.0165 3.76802C44.7154 2.46282 53.6203 4.03954 61.2479 8.23091C62.9217 9.1507 63.498 11.1873 62.5331 12.7817C61.567 14.3763 59.4256 14.9224 57.7513 14.0024C51.5109 10.5733 44.2237 9.28568 37.1068 10.3533C29.9897 11.4212 23.4709 14.7811 18.6395 19.8715C13.8083 24.9622 10.9548 31.4772 10.556 38.3286C10.1574 45.1801 12.2373 51.9566 16.4486 57.5245C20.6599 63.0921 26.7495 67.1174 33.6991 68.9275C40.6487 70.7374 48.0409 70.2241 54.641 67.4724C61.2414 64.7206 66.6525 59.8949 69.9706 53.8038C73.2883 47.7129 74.311 40.7227 72.8724 33.9991C72.4866 32.1957 73.71 30.4349 75.6034 30.0669C77.4974 29.6993 79.3462 30.864 79.7323 32.6678C81.4906 40.8858 80.2365 49.4288 76.181 56.8735C72.1256 64.3182 65.5144 70.2159 57.4472 73.5792C49.3806 76.9421 40.3471 77.5685 31.8534 75.3566C23.3592 73.1441 15.9151 68.2261 10.768 61.421C5.62092 54.6159 3.07923 46.3347 3.56629 37.9607C4.05348 29.5866 7.54262 21.6242 13.4476 15.4021C19.3526 9.18049 27.3178 5.07323 36.0165 3.76802Z" fill="black"/>
<path d="M74.5256 10.9766C75.8925 9.67481 78.108 9.67481 79.4748 10.9766C80.8417 12.2783 80.8417 14.3883 79.4748 15.6901L44.4748 49.0234C43.108 50.3252 40.8924 50.3252 39.5256 49.0234L29.0256 39.0234C27.6588 37.7217 27.6588 35.6116 29.0256 34.3099C30.3924 33.0081 32.608 33.0081 33.9748 34.3099L42.0002 41.9531L74.5256 10.9766Z" fill="black"/>
</svg>
